{"accessors":[{"bufferView":2,"componentType":5126,"count":1488,"max":[63.048301696777344,19.010099411010742,-91.8812026977539],"min":[-63.2932014465332,1.0056999921798706,-112.02249908447266],"type":"VEC3"},{"bufferView":2,"byteOffset":17856,"componentType":5126,"count":1488,"max":[0.9967827200889587,0.9995429515838623,0.9968334436416626],"min":[-0.9978231191635132,-0.9854907393455505,-0.8077123165130615],"type":"VEC3"},{"bufferView":3,"componentType":5126,"count":1488,"max":[1,0.9992443323135376,0.9960806965827942,1],"min":[-0.9986858367919922,-0.9996594786643982,-0.9973891377449036,-1],"type":"VEC4"},{"bufferView":1,"componentType":5126,"count":1488,"max":[0.9961000084877014,0.9940000176429749],"min":[0.673799991607666,0.008299999870359898],"type":"VEC2"},{"bufferView":1,"byteOffset":11904,"componentType":5126,"count":1488,"max":[0.9961000084877014,0.9940000176429749],"min":[0.673799991607666,0.008299999870359898],"type":"VEC2"},{"bufferView":0,"componentType":5125,"count":7035,"type":"SCALAR"},{"bufferView":2,"byteOffset":35712,"componentType":5126,"count":2258,"max":[54.805198669433594,23.643199920654297,1.6031999588012695],"min":[-55.25899887084961,-33.64149856567383,-156.98959350585938],"type":"VEC3"},{"bufferView":2,"byteOffset":62808,"componentType":5126,"count":2258,"max":[0.9997073411941528,0.999955415725708,0.9841439723968506],"min":[-0.9982649683952332,-0.9999082088470459,-0.9946801066398621],"type":"VEC3"},{"bufferView":3,"byteOffset":23808,"componentType":5126,"count":2258,"max":[0.9999975562095642,0.9998596906661987,0.9999535083770752,1],"min":[-0.9999966025352478,-0.9999996423721313,-0.9565520286560059,1],"type":"VEC4"},{"bufferView":1,"byteOffset":23808,"componentType":5126,"count":2258,"max":[0.9945999979972839,0.9915000200271606],"min":[0.005900000222027302,0.005900000222027302],"type":"VEC2"},{"bufferView":1,"byteOffset":41872,"componentType":5126,"count":2258,"max":[0.9945999979972839,0.9915000200271606],"min":[0.005900000222027302,0.005900000222027302],"type":"VEC2"},{"bufferView":0,"byteOffset":28140,"componentType":5125,"count":11517,"type":"SCALAR"},{"bufferView":2,"byteOffset":89904,"componentType":5126,"count":402,"max":[4.688600063323975,9.598299980163574,-164.7165985107422],"min":[-4.748899936676025,7.8927001953125,-167.92489624023438],"type":"VEC3"},{"bufferView":2,"byteOffset":94728,"componentType":5126,"count":402,"max":[0.9988386631011963,0.9986827373504639,0.9991042613983154],"min":[-0.9981490969657898,0.024232111871242523,-0.9925503134727478],"type":"VEC3"},{"bufferView":3,"byteOffset":59936,"componentType":5126,"count":402,"max":[0.9996414184570312,0.9983531832695007,0.08194894343614578,1],"min":[0.042663417756557465,-0.9989744424819946,-0.0796085000038147,1],"type":"VEC4"},{"bufferView":1,"byteOffset":59936,"componentType":5126,"count":402,"max":[0.9800000190734863,0.9782000184059143],"min":[0.020800000056624413,0.01860000006854534],"type":"VEC2"},{"bufferView":1,"byteOffset":63152,"componentType":5126,"count":402,"max":[0.9800000190734863,0.9782000184059143],"min":[0.020800000056624413,0.01860000006854534],"type":"VEC2"},{"bufferView":0,"byteOffset":74208,"componentType":5125,"count":2280,"type":"SCALAR"},{"bufferView":2,"byteOffset":99552,"componentType":5126,"count":340,"max":[3.13919997215271,10.994799613952637,-157.45419311523438],"min":[-3.433000087738037,3.712100028991699,-160.60020446777344],"type":"VEC3"},{"bufferView":2,"byteOffset":103632,"componentType":5126,"count":340,"max":[0.989628791809082,0.9684794545173645,0.999111533164978],"min":[-0.9888325929641724,-0.9402037858963013,-0.9997323751449585],"type":"VEC3"},{"bufferView":3,"byteOffset":66368,"componentType":5126,"count":340,"max":[1,0.9984779953956604,0.9678458571434021,1],"min":[-0.9999986886978149,-0.9940294623374939,-0.9756077527999878,1],"type":"VEC4"},{"bufferView":1,"byteOffset":66368,"componentType":5126,"count":340,"max":[-0.0007999999797903001,0.9943000078201294],"min":[-0.9994999766349792,0.005900000222027302],"type":"VEC2"},{"bufferView":1,"byteOffset":69088,"componentType":5126,"count":340,"max":[-0.0007999999797903001,0.9943000078201294],"min":[-0.9994999766349792,0.005900000222027302],"type":"VEC2"},{"bufferView":0,"byteOffset":83328,"componentType":5125,"count":1443,"type":"SCALAR"},{"bufferView":2,"byteOffset":107712,"componentType":5126,"count":1771,"max":[10.43529987335205,12.419400215148926,-141.69900512695312],"min":[-10.645700454711914,-11.809900283813477,-177.50830078125],"type":"VEC3"},{"bufferView":2,"byteOffset":128964,"componentType":5126,"count":1771,"max":[0.9989482760429382,0.9999734163284302,0.9999712705612183],"min":[-0.9984142780303955,-0.9999291896820068,-0.9988591074943542],"type":"VEC3"},{"bufferView":3,"byteOffset":71808,"componentType":5126,"count":1771,"max":[1,0.9998329281806946,0.946998655796051,1],"min":[-0.9999826550483704,-0.9992889165878296,-0.9603657722473145,-1],"type":"VEC4"},{"bufferView":1,"byteOffset":71808,"componentType":5126,"count":1771,"max":[1,0.9983999729156494],"min":[0,0],"type":"VEC2"},{"bufferView":1,"byteOffset":85976,"componentType":5126,"count":1771,"max":[1,0.9983999729156494],"min":[0,0],"type":"VEC2"},{"bufferView":0,"byteOffset":89100,"componentType":5125,"count":10200,"type":"SCALAR"}],"asset":{"extras":{"author":"TheJagStudio (https://sketchfab.com/thejagstudio)","license":"CC-BY-4.0 (http://creativecommons.org/licenses/by/4.0/)","source":"https://sketchfab.com/3d-models/voldemort-c9ad59f8280245f29f4f73925991e229","title":"Voldemort"},"generator":"Sketchfab-12.66.0","version":"2.0"},"bufferViews":[{"buffer":0,"byteLength":129900,"name":"floatBufferViews","target":34963},{"buffer":0,"byteLength":100144,"byteOffset":129900,"byteStride":8,"name":"floatBufferViews","target":34962},{"buffer":0,"byteLength":150216,"byteOffset":230044,"byteStride":12,"name":"floatBufferViews","target":34962},{"buffer":0,"byteLength":100144,"byteOffset":380260,"byteStride":16,"name":"floatBufferViews","target":34962}],"buffers":[{"byteLength":480404,"uri":"data:application/octet-stream;base64,"}],"images":[{"uri":"data:application/octet-stream;base64,"},{"uri":"data:application/octet-stream;base64,"},{"uri":"data:application/octet-stream;base64,"},{"uri":"data:application/octet-stream;base64,"},{"uri":"data:application/octet-stream;base64,"},{"uri":"data:application/octet-stream;base64,"},{"uri":"data:application/octet-stream;base64,"},{"uri":"data:application/octet-stream;base64,"},{"uri":"data:application/octet-stream;base64,"},{"uri":"data:application/octet-stream;base64,"}],"materials":[{"doubleSided":true,"name":"hands","normalTexture":{"index":1},"pbrMetallicRoughness":{"baseColorTexture":{"index":0},"metallicFactor":0,"roughnessFactor":0.894591}},{"doubleSided":true,"name":"cloths","normalTexture":{"index":3},"pbrMetallicRoughness":{"baseColorTexture":{"index":2},"metallicFactor":0,"roughnessFactor":0.894591}},{"doubleSided":true,"name":"Material__519.001","normalTexture":{"index":5},"pbrMetallicRoughness":{"baseColorTexture":{"index":4},"metallicFactor":0,"roughnessFactor":0.894591}},{"doubleSided":true,"name":"Material__520.001","normalTexture":{"index":7},"pbrMetallicRoughness":{"baseColorTexture":{"index":6},"metallicFactor":0,"roughnessFactor":0.894591}},{"doubleSided":true,"name":"Material__521.001","normalTexture":{"index":9},"pbrMetallicRoughness":{"baseColorTexture":{"index":8},"metallicFactor":0,"roughnessFactor":0.894591}}],"meshes":[{"name":"Object_0","primitives":[{"attributes":{"NORMAL":1,"POSITION":0,"TANGENT":2,"TEXCOORD_0":3,"TEXCOORD_1":4},"indices":5,"material":0,"mode":4}]},{"name":"Object_1","primitives":[{"attributes":{"NORMAL":7,"POSITION":6,"TANGENT":8,"TEXCOORD_0":9,"TEXCOORD_1":10},"indices":11,"material":1,"mode":4}]},{"name":"Object_2","primitives":[{"attributes":{"NORMAL":13,"POSITION":12,"TANGENT":14,"TEXCOORD_0":15,"TEXCOORD_1":16},"indices":17,"material":2,"mode":4}]},{"name":"Object_3","primitives":[{"attributes":{"NORMAL":19,"POSITION":18,"TANGENT":20,"TEXCOORD_0":21,"TEXCOORD_1":22},"indices":23,"material":3,"mode":4}]},{"name":"Object_4","primitives":[{"attributes":{"NORMAL":25,"POSITION":24,"TANGENT":26,"TEXCOORD_0":27,"TEXCOORD_1":28},"indices":29,"material":4,"mode":4}]}],"nodes":[{"children":[1],"matrix":[1,0,0,0,0,2.220446049250313e-16,-1,0,0,1,2.220446049250313e-16,0,0,0,0,1],"name":"Sketchfab_model"},{"children":[2],"name":"root"},{"children":[3],"matrix":[1,0,0,0,0,2.220446049250313e-16,1,0,0,-1,2.220446049250313e-16,0,0,0,0,1],"name":"GLTF_SceneRootNode"},{"children":[4,5,6,7,8],"matrix":[0.059995055198669434,0,0,0,0,-1.0114410184704466e-8,0.05999505519866858,0,0,-0.05999505519866858,-1.0114410184704466e-8,0,0,0,0,1],"name":"ch_lord_voldemort.002_0"},{"mesh":0,"name":"Object_4"},{"mesh":1,"name":"Object_5"},{"mesh":2,"name":"Object_6"},{"mesh":3,"name":"Object_7"},{"mesh":4,"name":"Object_8"}],"samplers":[{"magFilter":9729,"minFilter":9987,"wrapS":10497,"wrapT":10497}],"scene":0,"scenes":[{"name":"Sketchfab_Scene","nodes":[0]}],"textures":[{"sampler":0,"source":0},{"sampler":0,"source":1},{"sampler":0,"source":2},{"sampler":0,"source":3},{"sampler":0,"source":4},{"sampler":0,"source":5},{"sampler":0,"source":6},{"sampler":0,"source":7},{"sampler":0,"source":8},{"sampler":0,"source":9}]}